<?xml version="1.0" encoding="utf-8"?>
<!-- Generator: Adobe Illustrator 19.2.0, SVG Export Plug-In . SVG Version: 6.00 Build 0)  -->
<svg version="1.1" id="Layer_1" xmlns="http://www.w3.org/2000/svg" xmlns:xlink="http://www.w3.org/1999/xlink" x="0px" y="0px"
	 viewBox="0 0 476.4 200" style="enable-background:new 0 0 476.4 200;" xml:space="preserve">
<g>
	<g>
		<g>
			<path d="M206,200H6V0h199.9v200H206z M11.8,194.2h188.4V5.8H11.8V194.2z"/>
		</g>
		<g>
			<path d="M34.2,111.5h12.1v21.1h18v-21.1h12.1v52H64.2v-20.6H46.1v20.6H34.1v-52H34.2z"/>
			<path d="M86.8,145.8v-34.3h12v33.7c0,5.9,3.6,9.3,9,9.3c5.5,0,9-3.3,9-9.3v-33.7h12.1v34.4c0,12.1-8.2,19-21.1,19
				S86.8,158,86.8,145.8z"/>
			<path d="M178.6,149c0,8.9-6.4,14.4-16.7,14.4h-22.2v-51.9h21.4c10.3,0,16.7,5.2,16.7,13.5c0,6.8-3.9,10.8-10,11.8
				C173.8,137.5,178.6,141.9,178.6,149z M151.7,120.1v12.6h6.7c4.6,0,7.4-2.4,7.4-6.4c0-3.9-2.6-6.4-7.4-6.4h-6.7V120.1z
				 M166.4,147.4c0-3.8-2.9-6.4-7.2-6.4h-7.5v13.2h7.5C163.6,154.3,166.4,151.7,166.4,147.4z"/>
		</g>
		<g>
			<path d="M34.2,79.3h6.9v23.3h-6.9V79.3z"/>
			<path d="M48.1,79.3h8.8l4.9,15.1l4.9-15.1h8.6v23.3h-6.6V87.9l-4.3,14.7h-5.2l-4.5-14.8v14.8h-6.6V79.3H48.1z"/>
			<path d="M102.1,88c0,4.9-3.6,8.7-8.7,8.7h-4.3v5.9h-6.9V79.3h11.2C98.5,79.3,102.1,83,102.1,88z M95.1,88c0-1.9-1.3-3.3-3.1-3.3
				h-2.9v6.6H92C93.8,91.3,95.1,89.9,95.1,88z"/>
			<g>
				<path d="M119,99.8h-7.5l-0.8,2.6h-7.1l7.9-23.3h7.5l7.9,23.3h-7.1L119,99.8z M117.7,94.9l-2.4-9l-2.4,9H117.7z"/>
				<path d="M129.7,90.9c0-7.2,5.3-12.3,12.8-12.3c7.2,0,12,3.5,12.5,9.7h-7.2c-0.4-2.1-2.3-3.5-5.2-3.5c-3.6,0-5.7,2.4-5.7,6.3
					c0,3.8,2.1,6.3,5.7,6.3c2.9,0,4.7-1.4,5.2-3.5h7.2c-0.5,6.1-5.3,9.7-12.5,9.7C134.9,103.2,129.7,98.2,129.7,90.9z"/>
				<path d="M165,85.2H159v-5.9h18.8v5.9h-5.9v17.2H165V85.2z"/>
			</g>
		</g>
	</g>
	<g>
		<g>
			<path d="M228.3,111.5h13.9l13.8,37l13.8-37h13.7v52H272v-33.7l-11.5,33.7h-8.9l-11.8-33.9v33.9h-11.5V111.5z"/>
			<path d="M290.7,145.6c0-10.8,6.6-18.9,17-18.9c5.2,0,9.3,2.4,11.2,6.1v-5.2h11.3v35.8h-11.3v-5c-2,3.5-6.4,6-11.4,6
				C296.8,164.5,290.7,156.3,290.7,145.6z M319.3,145.6c0-5.2-2.9-9.3-8.6-9.3c-5.3,0-8.6,3.9-8.6,9.3s3.3,9.4,8.6,9.4
				C316.5,155,319.3,150.7,319.3,145.6z"/>
			<path d="M376,111.5v52h-11.3v-5c-2,3.5-6.4,6-11.4,6c-10.8,0-16.9-8.1-16.9-18.9s6.6-18.9,17-18.9c5.2,0,9.3,2.4,11.2,6.1v-3.1
				h-0.1v-18.3H376z M365.2,145.6c0-5.2-2.9-9.3-8.6-9.3c-5.3,0-8.6,3.9-8.6,9.3s3.3,9.4,8.6,9.4C362.2,155,365.2,150.7,365.2,145.6
				z"/>
			<path d="M384.4,127.6h11.4v7.5c1.3-5.4,5.5-8.1,9.9-8.1c1.3,0,2.1,0.1,3,0.3v10.5c-1.3-0.1-2-0.2-3.4-0.2c-5.6,0-9.4,3.3-9.4,12
				v13.8h-11.4V127.6z"/>
			<path d="M412.1,117.5c0-3.8,2.9-7,7-7s7,3.1,7,7c0,3.8-3,6.9-7,6.9S412.1,121.3,412.1,117.5z M413.5,127.6h11.4v35.8h-11.4V127.6
				z"/>
			<path d="M470.4,111.5v52h-11.3v-5c-2,3.5-6.4,6-11.4,6c-10.8,0-16.9-8.1-16.9-18.9s6.6-18.9,17-18.9c5.2,0,9.3,2.4,11.2,6.1v-3.1
				h-0.1v-18.3H470.4z M459.5,145.6c0-5.2-2.9-9.3-8.6-9.3c-5.3,0-8.6,3.9-8.6,9.3s3.3,9.4,8.6,9.4
				C456.7,155,459.5,150.7,459.5,145.6z"/>
		</g>
	</g>
</g>
</svg>
